<mxfile host="app.diagrams.net" modified="2022-11-29T05:10:59.276Z" agent="5.0 (Windows NT 10.0; WOW64) AppleWebKit/537.36 (KHTML, like Gecko) Chrome/84.0.4147.89 Safari/537.36 SLBrowser/7.0.0.12151 SLBChan/105" etag="1UkTEzacQx2EpqGi2awc" version="20.5.3" type="github">
  <diagram id="nrlFBs3JXVyaURFsjs_d" name="第 1 页">
    <mxGraphModel dx="996" dy="610" grid="1" gridSize="10" guides="1" tooltips="1" connect="1" arrows="1" fold="1" page="1" pageScale="1" pageWidth="827" pageHeight="1169" math="0" shadow="0">
      <root>
        <mxCell id="0" />
        <mxCell id="1" parent="0" />
      </root>
    </mxGraphModel>
  </diagram>
</mxfile>
